<svg width="50" height="50" viewBox="0 0 50 50" fill="none" xmlns="http://www.w3.org/2000/svg">
<g clip-path="url(#clip0_1_2)">
<path d="M8.45703 6.25C11.6211 3.4668 15.4883 1.46484 19.7559 0.546875C20.1172 1.86523 20.3125 3.25195 20.3125 4.6875C20.3125 8.4375 18.9941 11.8848 16.7871 14.5801L8.45703 6.25ZM6.25 8.45703L14.5703 16.7773C11.8848 18.9941 8.4375 20.3125 4.6875 20.3125C3.25195 20.3125 1.86523 20.1172 0.546875 19.7559C1.46484 15.4883 3.4668 11.6211 6.25 8.45703ZM25 0C31.3379 0 37.1289 2.36328 41.543 6.25L25 22.793L19.0039 16.7969C21.7676 13.5254 23.4375 9.30664 23.4375 4.6875C23.4375 3.10547 23.2422 1.5625 22.8711 0.0878906C23.5742 0.0292969 24.2871 0 25 0ZM4.6875 23.4375C9.30664 23.4375 13.5254 21.7676 16.7969 19.0039L22.793 25L6.25 41.543C2.36328 37.1289 0 31.3379 0 25C0 24.2871 0.0292969 23.5742 0.0878906 22.8711C1.5625 23.2422 3.10547 23.4375 4.6875 23.4375ZM49.9121 27.1289C48.4375 26.7578 46.8945 26.5625 45.3125 26.5625C40.6934 26.5625 36.4746 28.2324 33.2031 30.9961L27.207 25L43.75 8.45703C47.6367 12.8613 50 18.6523 50 25C50 25.7129 49.9707 26.4258 49.9121 27.1289ZM49.4531 30.2441C48.5352 34.5117 46.5332 38.3789 43.75 41.543L35.4297 33.2227C38.1152 31.0059 41.5625 29.6875 45.3125 29.6875C46.748 29.6875 48.1348 29.8828 49.4531 30.2441ZM33.2129 35.4199L41.543 43.75C38.3789 46.5332 34.5117 48.5352 30.2441 49.4531C29.8828 48.1348 29.6875 46.748 29.6875 45.3125C29.6875 41.5625 31.0059 38.1152 33.2129 35.4199ZM30.9961 33.2031C28.2324 36.4746 26.5625 40.6934 26.5625 45.3125C26.5625 46.8945 26.7578 48.4375 27.1289 49.9121C26.4258 49.9707 25.7129 50 25 50C18.6621 50 12.8711 47.6367 8.45703 43.75L25 27.207L30.9961 33.2031Z" fill="white"/>
</g>
<defs>
<clipPath id="clip0_1_2">
<rect width="50" height="50" fill="white"/>
</clipPath>
</defs>
</svg>
